<mxfile host="app.diagrams.net">
  <diagram id="homelab" name="Homelab Network">
    <mxGraphModel dx="1500" dy="800" grid="1" gridSize="10" guides="1" tooltips="1" connect="1" arrows="1" fold="1" page="1" pageScale="1" pageWidth="1654" pageHeight="1169" background="#ffffff">
      <root>
        <mxCell id="0"/>
        <mxCell id="1" parent="0"/>
        <mxCell id="internet" value="Internet / ISP" style="shape=cloud;whiteSpace=wrap;html=1;fillColor=#dae8fc;strokeColor=#6c8ebf;" vertex="1" parent="1">
          <mxGeometry x="400" y="20" width="140" height="80" as="geometry"/>
        </mxCell>
        <mxCell id="opn-vm" value="OPNsense VM&#10;WAN: DHCP&#10;LAN: 10.20.10.1" style="shape=process;whiteSpace=wrap;html=1;fillColor=#ffe6cc;strokeColor=#d79b00;" vertex="1" parent="1">
          <mxGeometry x="400" y="150" width="160" height="60" as="geometry"/>
        </mxCell>
        <mxCell id="proxmox" value="Proxmox Host" style="shape=process;whiteSpace=wrap;html=1;fillColor=#e1d5e7;strokeColor=#9673a6;" vertex="1" parent="1">
          <mxGeometry x="180" y="150" width="140" height="60" as="geometry"/>
        </mxCell>
        <mxCell id="core-switch" value="Core Switch&#10;10G SFP+" style="shape=process;whiteSpace=wrap;html=1;fillColor=#d5e8d4;strokeColor=#82b366;" vertex="1" parent="1">
          <mxGeometry x="400" y="260" width="160" height="60" as="geometry"/>
        </mxCell>
        <mxCell id="poe-switch" value="PoE Switch&#10;2.5G access" style="shape=process;whiteSpace=wrap;html=1;fillColor=#d5e8d4;strokeColor=#82b366;" vertex="1" parent="1">
          <mxGeometry x="400" y="360" width="160" height="60" as="geometry"/>
        </mxCell>
        <mxCell id="nas" value="Dell Server / NAS&#10;10G SFP+&#10;IP: 10.20.10.x" style="shape=process;whiteSpace=wrap;html=1;fillColor=#f8cecc;strokeColor=#b85450;" vertex="1" parent="1">
          <mxGeometry x="620" y="260" width="180" height="60" as="geometry"/>
        </mxCell>
        <mxCell id="ap1" value="WiFi 7 AP #1&#10;VLAN10/20/30/40" style="shape=ellipse;whiteSpace=wrap;html=1;fillColor=#fff2cc;strokeColor=#d6b656;" vertex="1" parent="1">
          <mxGeometry x="250" y="460" width="100" height="60" as="geometry"/>
        </mxCell>
        <mxCell id="ap2" value="WiFi 7 AP #2&#10;VLAN10/20/30/40" style="shape=ellipse;whiteSpace=wrap;html=1;fillColor=#fff2cc;strokeColor=#d6b656;" vertex="1" parent="1">
          <mxGeometry x="400" y="460" width="100" height="60" as="geometry"/>
        </mxCell>
        <mxCell id="ap3" value="WiFi 7 AP #3&#10;VLAN10/20/30/40" style="shape=ellipse;whiteSpace=wrap;html=1;fillColor=#fff2cc;strokeColor=#d6b656;" vertex="1" parent="1">
          <mxGeometry x="550" y="460" width="100" height="60" as="geometry"/>
        </mxCell>
        <!-- Connections -->
        <mxCell id="edge1" edge="1" parent="1" source="internet" target="opn-vm"><mxGeometry relative="1" as="geometry"/></mxCell>
        <mxCell id="edge2" edge="1" parent="1" source="opn-vm" target="core-switch"><mxGeometry relative="1" as="geometry"/></mxCell>
        <mxCell id="edge3" edge="1" parent="1" source="proxmox" target="core-switch"><mxGeometry relative="1" as="geometry"/></mxCell>
        <mxCell id="edge4" edge="1" parent="1" source="core-switch" target="nas"><mxGeometry relative="1" as="geometry"/></mxCell>
        <mxCell id="edge5" edge="1" parent="1" source="core-switch" target="poe-switch"><mxGeometry relative="1" as="geometry"/></mxCell>
        <mxCell id="edge6" edge="1" parent="1" source="poe-switch" target="ap1"><mxGeometry relative="1" as="geometry"/></mxCell>
        <mxCell id="edge7" edge="1" parent="1" source="poe-switch" target="ap2"><mxGeometry relative="1" as="geometry"/></mxCell>
        <mxCell id="edge8" edge="1" parent="1" source="poe-switch" target="ap3"><mxGeometry relative="1" as="geometry"/></mxCell>
      </root>
    </mxGraphModel>
  </diagram>
</mxfile>
